<svg xmlns="http://www.w3.org/2000/svg" xmlns:xlink="http://www.w3.org/1999/xlink" width="816" zoomAndPan="magnify" viewBox="0 0 612 791.999994" height="1056" preserveAspectRatio="xMidYMid meet" version="1.0"><defs><clipPath id="067d22d8ce"><path d="M 249 303 L 428.207031 303 L 428.207031 555 L 249 555 Z M 249 303 " clip-rule="nonzero"/></clipPath><clipPath id="47473f732e"><path d="M 170 262.230469 L 403 262.230469 L 403 561.480469 L 170 561.480469 Z M 170 262.230469 " clip-rule="nonzero"/></clipPath><clipPath id="449a7b94a2"><path d="M 154.457031 274 L 330 274 L 330 488 L 154.457031 488 Z M 154.457031 274 " clip-rule="nonzero"/></clipPath></defs><g clip-path="url(#067d22d8ce)"><path fill="#e1a8f0" d="M 426.304688 305.609375 C 425.378906 306.519531 424.582031 307.527344 423.910156 308.636719 C 422.273438 311.117188 420.796875 313.558594 418.917969 315.863281 C 417.832031 317.109375 416.96875 318.5 416.324219 320.023438 C 415.542969 321.78125 413.6875 322.796875 412.246094 324.089844 C 411.652344 324.625 410.75 325.136719 410.382812 325.875 C 409.777344 327.089844 409.941406 329.160156 409.539062 330.503906 C 408.507812 333.78125 406.878906 336.726562 404.65625 339.34375 C 403.15625 340.992188 401.117188 342.566406 400.339844 344.714844 C 399.898438 346.003906 400.175781 346.359375 398.953125 347.429688 C 397.84375 348.402344 396.460938 348.535156 395.476562 349.734375 C 394.492188 350.933594 393.71875 352.257812 392.597656 353.441406 C 391.253906 354.832031 389.960938 356.128906 388.523438 357.425781 C 387.882812 357.933594 387.210938 358.386719 386.5 358.785156 C 385.453125 359.476562 385.261719 360.140625 384.34375 361.023438 C 383.214844 362.109375 381.984375 361.808594 381.660156 363.445312 C 381.453125 364.476562 381.761719 365.773438 381.726562 366.84375 C 381.652344 369.214844 380.097656 369.558594 379.015625 371.542969 C 378.574219 372.328125 378.609375 372.859375 377.878906 373.496094 C 376.945312 374.304688 375.597656 374.226562 374.957031 375.390625 C 374.664062 375.925781 375.046875 376.148438 374.910156 376.601562 C 374.601562 377.613281 374.230469 378.605469 373.800781 379.574219 C 372.8125 381.832031 372.152344 384.355469 370.40625 386.167969 C 369.761719 386.839844 369.023438 387.34375 368.316406 387.949219 C 366.664062 389.371094 367.3125 389.851562 366.703125 391.617188 C 366.402344 392.496094 365.730469 392.527344 365.105469 393.101562 C 364.074219 394.0625 363.230469 395.160156 362.183594 396.113281 C 361.25 396.957031 360.863281 398.007812 359.984375 398.898438 C 358.953125 399.960938 357.492188 400.566406 356.398438 401.628906 C 355.019531 402.949219 353.261719 404.3125 352.003906 405.691406 C 351.101562 406.675781 350.246094 407.640625 350.039062 408.886719 C 349.808594 410.207031 350.148438 411.757812 350.078125 413.105469 C 349.953125 415.550781 348.53125 415.339844 347.660156 417.308594 C 347.382812 417.929688 347.613281 418.5625 347.25 419.171875 C 346.761719 420.015625 345.832031 420.394531 345.175781 421.058594 C 344.253906 421.996094 344.917969 421.292969 344.476562 422.074219 C 344.582031 422.480469 344.554688 422.878906 344.390625 423.265625 C 344.226562 423.65625 343.964844 423.953125 343.597656 424.164062 C 342.671875 424.542969 341.886719 425.121094 341.246094 425.894531 C 341.015625 426.140625 340.910156 426.589844 340.632812 426.796875 C 339.628906 427.53125 338.433594 427.371094 337.390625 427.960938 C 336.296875 428.589844 336.871094 428.746094 336.074219 429.746094 C 335.429688 430.539062 334.808594 430.667969 334.222656 431.34375 C 333.636719 432.023438 334.199219 432.457031 333.96875 433.148438 C 333.601562 434.222656 332.320312 435.222656 331.394531 435.859375 C 331.117188 436.046875 330.824219 436.210938 330.515625 436.347656 C 330.011719 436.5 329.554688 436.746094 329.152344 437.089844 C 328.621094 437.679688 328.691406 438.449219 328.578125 439.167969 C 328.453125 439.613281 328.242188 440.007812 327.945312 440.359375 C 327.703125 440.804688 327.496094 441.265625 327.316406 441.742188 C 327.132812 442.152344 327.199219 442.488281 326.984375 442.851562 C 326.859375 443.054688 326.65625 443.21875 326.542969 443.433594 C 326.378906 443.730469 326.328125 444.042969 326.144531 444.3125 C 326.144531 444.3125 325.921875 444.59375 325.886719 444.621094 C 325.679688 444.785156 325.488281 444.707031 325.300781 444.839844 C 325.023438 445.03125 325.074219 445.5625 324.859375 445.851562 C 324.777344 445.957031 324.617188 446.003906 324.542969 446.101562 C 324.363281 446.324219 324.273438 446.609375 324.105469 446.835938 C 323.734375 447.273438 323.167969 447.503906 323.039062 448.117188 C 323 448.53125 323 448.941406 323.039062 449.355469 C 323.039062 450.394531 323.414062 452.210938 322.625 453.003906 C 322.527344 453.105469 322.332031 453.160156 322.25 453.289062 C 322.023438 453.640625 322.285156 453.726562 321.832031 454.074219 C 321.570312 454.269531 321.128906 454.355469 320.886719 454.59375 C 320.574219 454.902344 320.675781 454.988281 320.320312 455.214844 C 320.0625 455.316406 319.808594 455.433594 319.5625 455.566406 C 319.289062 455.792969 319.035156 456.035156 318.796875 456.300781 C 318.441406 456.699219 318.019531 457.007812 317.53125 457.230469 C 317.273438 457.351562 316.953125 457.394531 316.816406 457.609375 C 316.679688 457.824219 316.851562 458.597656 316.816406 458.832031 C 316.742188 459.152344 316.546875 459.441406 316.472656 459.757812 C 316.242188 460.730469 316.613281 461.625 316.1875 462.570312 C 316.042969 463.011719 315.851562 463.429688 315.617188 463.824219 C 315.46875 464 315.203125 464.148438 315.035156 464.320312 C 314.910156 464.429688 314.796875 464.550781 314.691406 464.683594 C 314.53125 464.96875 314.648438 465.253906 314.542969 465.5625 C 314.269531 466.371094 313.222656 467.054688 312.523438 467.394531 C 312.085938 467.609375 311.730469 467.898438 311.3125 468.128906 C 310.972656 468.3125 310.480469 468.386719 310.148438 468.566406 C 309.105469 469.089844 308.664062 470.023438 307.839844 470.765625 C 306.84375 471.582031 305.785156 472.304688 304.660156 472.933594 C 304.308594 473.207031 303.910156 473.355469 303.464844 473.371094 C 302.964844 473.371094 302.550781 473.253906 302.097656 473.59375 C 301.367188 474.132812 301.21875 475.398438 300.9375 476.171875 C 300.722656 476.753906 300.765625 477.089844 300.347656 477.492188 C 300.257812 477.601562 300.164062 477.707031 300.058594 477.808594 C 299.679688 478.128906 299.496094 477.988281 299.101562 478.105469 C 298.453125 478.300781 298.035156 478.929688 297.550781 479.425781 C 297.152344 479.828125 296.730469 480.195312 296.273438 480.527344 C 295.867188 480.824219 295.394531 480.882812 295.023438 481.21875 C 294.648438 481.550781 294.488281 482.0625 294.089844 482.421875 C 293.933594 482.523438 293.785156 482.640625 293.648438 482.769531 C 293.464844 483.003906 293.457031 483.257812 293.253906 483.46875 C 293.199219 483.53125 292.972656 483.46875 292.894531 483.527344 C 292.777344 483.765625 292.605469 483.949219 292.375 484.082031 C 292.15625 484.15625 291.945312 484.246094 291.738281 484.351562 C 291.558594 484.535156 291.457031 484.75 291.433594 485.003906 C 291.382812 485.304688 291.25 485.558594 291.03125 485.773438 C 290.007812 487.039062 288.234375 487.792969 287.515625 489.289062 C 287.261719 489.894531 286.96875 490.480469 286.632812 491.046875 C 286.367188 491.523438 286.039062 491.949219 285.644531 492.328125 C 285.316406 492.558594 284.84375 492.527344 284.59375 492.917969 C 284.15625 493.582031 283.714844 494.277344 283.277344 494.929688 C 282.238281 496.46875 281.957031 497.566406 281.460938 499.425781 C 280.390625 502.949219 278.5625 506.027344 275.984375 508.65625 C 271.589844 512.839844 267.632812 516.878906 264.910156 522.40625 C 264.140625 523.953125 263.878906 525.558594 263.152344 527.066406 C 262.6875 527.902344 262.289062 528.769531 261.953125 529.664062 C 261.261719 531.710938 260.800781 533.820312 260.105469 535.867188 C 259.351562 538.0625 258.171875 539.457031 256.894531 541.292969 C 255.320312 543.558594 255.574219 546.601562 253.851562 548.765625 C 252.824219 550.085938 249.140625 552.574219 250.070312 554.351562 C 252.179688 552.222656 253.882812 549.921875 255.738281 547.582031 C 256.894531 546.121094 259.371094 543.851562 260.628906 542.078125 C 261.507812 540.855469 261.558594 539.402344 262.3125 538.121094 C 263.359375 536.363281 265.503906 536.046875 266.375 534.109375 C 266.816406 533.144531 266.417969 531.46875 266.886719 530.71875 C 267.265625 530.105469 268.484375 529.714844 269.082031 529.398438 C 271.382812 528.265625 273.78125 527.363281 276.042969 526.136719 C 277.636719 525.257812 280.761719 523.742188 281.21875 521.703125 C 281.371094 521.003906 281.007812 520.300781 281.308594 519.542969 C 281.789062 518.3125 283.242188 517.402344 284.097656 516.582031 C 285.226562 515.5 285.855469 514.382812 286.734375 513.089844 C 287.613281 511.800781 288.859375 511.132812 289.773438 509.984375 C 290.6875 508.835938 290.414062 507.667969 291.070312 506.382812 C 291.800781 504.949219 293.050781 504.019531 294.148438 502.898438 C 295.242188 501.777344 296.34375 500.261719 297.609375 499.21875 C 299.183594 497.945312 301.410156 496.792969 303.164062 495.730469 C 305.117188 494.542969 307.285156 494.371094 309.28125 493.160156 C 313.148438 490.820312 316.039062 488.820312 317.726562 484.761719 C 318.941406 482.011719 319.953125 479.191406 320.765625 476.300781 C 321.585938 473.050781 323.917969 470.261719 326.578125 468.144531 C 328.28125 466.792969 332.0625 465.28125 332.984375 463.246094 C 333.527344 462.03125 333.125 460.78125 333.464844 459.402344 C 334.25 456.242188 336.371094 453.566406 336.9375 450.378906 C 337.035156 449.851562 336.914062 449.152344 337.160156 448.652344 C 338.039062 446.867188 340.675781 447.019531 341.835938 445.527344 C 342.324219 444.898438 342.179688 444.515625 342.414062 443.960938 C 343.351562 441.761719 344.441406 440.164062 345.933594 438.089844 C 347.964844 435.277344 349.777344 433.335938 352.699219 431.582031 C 354.015625 430.792969 354.71875 430.347656 356.296875 430.113281 C 359.054688 429.714844 360.253906 429.886719 362.363281 428.203125 C 364.359375 426.601562 366.40625 425.054688 368.445312 423.507812 C 369.085938 423.023438 369.765625 422.738281 370.019531 421.972656 C 370.558594 420.472656 369.351562 418.378906 369.972656 416.71875 C 370.933594 414.152344 374.367188 412.703125 376.285156 410.847656 C 377.199219 409.886719 378.203125 409.03125 379.296875 408.28125 C 380.351562 407.605469 381.863281 407.136719 382.371094 406.019531 L 382.292969 403.507812 C 382.585938 401.886719 382.886719 400.265625 383.199219 398.648438 C 384.113281 395.523438 385.363281 394.511719 387.382812 392.570312 C 389.308594 390.71875 389.503906 389.644531 390.382812 387.328125 C 391.261719 385.011719 390.820312 384.363281 390.382812 381.613281 C 389.542969 376.59375 388.714844 371.613281 392.289062 367.449219 C 393.105469 366.5 394.292969 365.789062 395.0625 364.847656 C 395.941406 363.757812 395.417969 363.40625 395.984375 362.035156 C 396.730469 360.214844 399.824219 358.460938 400.988281 357.722656 C 403.0625 356.402344 407.097656 354.929688 408.046875 352.535156 C 408.332031 351.808594 408.179688 351.816406 408.351562 351.273438 C 409.101562 348.859375 410.414062 346.6875 411.207031 344.238281 C 412.25 341.058594 412.777344 337.871094 413.371094 334.671875 C 413.925781 331.699219 416.703125 329.914062 417.5 327.0625 C 417.789062 326.023438 417.542969 324.820312 417.9375 323.804688 C 418.378906 322.71875 419.363281 321.835938 419.875 320.769531 C 420.480469 319.519531 420.609375 318.132812 421.082031 316.816406 C 421.5625 315.542969 422.191406 314.347656 422.960938 313.226562 C 423.46875 312.441406 423.566406 312.128906 424.371094 311.523438 C 424.949219 311.082031 425.925781 311.363281 428.238281 303.984375 C 427.707031 304.730469 426.953125 305.027344 426.304688 305.609375 Z M 426.304688 305.609375 " fill-opacity="1" fill-rule="nonzero"/></g><g clip-path="url(#47473f732e)"><path fill="#e1a8f0" d="M 255.242188 471.417969 C 256.871094 468.777344 258.558594 466.265625 260.015625 463.53125 C 260.972656 461.707031 262.113281 460.007812 263.4375 458.429688 C 264.421875 457.234375 264.839844 455.867188 265.835938 454.6875 C 267.046875 453.246094 269.238281 452.566406 270.75 451.476562 C 273.578125 449.449219 274.101562 446.398438 276.371094 443.941406 C 279.273438 440.800781 281.992188 438.230469 284.136719 434.429688 C 285.773438 431.53125 288.316406 428.933594 289.363281 425.734375 C 289.773438 424.578125 290.257812 423.449219 290.820312 422.355469 C 291.484375 420.90625 290.945312 420.03125 291.234375 418.453125 C 291.699219 415.90625 294.792969 413.277344 296.296875 411.058594 C 297.660156 409.050781 300.253906 407.1875 300.925781 404.800781 C 301.304688 403.480469 300.925781 401.722656 301.199219 400.402344 C 301.53125 398.851562 301.773438 396.449219 302.621094 395.230469 C 304.25 392.855469 307.457031 391.101562 309.414062 388.96875 C 310.859375 387.40625 310.617188 385.742188 312.09375 384.105469 C 314.304688 381.753906 316.691406 379.59375 319.25 377.625 C 319.855469 377.132812 320.507812 376.613281 321.089844 376.089844 C 322.988281 374.386719 324.304688 371.636719 326.339844 370.179688 C 326.824219 369.828125 327.992188 369.582031 328.28125 369.351562 C 329.160156 368.648438 329.445312 367.6875 330.140625 366.753906 C 331.757812 364.601562 334.335938 363.195312 336.183594 361.390625 C 338.335938 359.300781 337.460938 357.289062 338.011719 354.578125 C 338.695312 351.214844 341.527344 346.941406 343.875 344.34375 C 345.941406 342.039062 347.867188 340.964844 348.476562 337.601562 C 348.632812 336.75 348.074219 336.976562 348.605469 335.84375 C 349.960938 334.488281 351.464844 333.324219 353.113281 332.347656 L 356.777344 328.773438 C 358.046875 327.128906 359.238281 325.445312 360.734375 323.984375 C 361.207031 323.523438 361.667969 323.050781 362.117188 322.570312 C 362.65625 321.980469 362.929688 321.25 363.4375 320.628906 C 364.050781 319.90625 364.722656 319.132812 365.410156 318.472656 C 365.953125 317.949219 366.578125 317.628906 366.96875 316.96875 C 367.453125 316.148438 368.4375 315.769531 368.6875 314.769531 C 368.742188 314.335938 368.832031 313.914062 368.964844 313.496094 C 369.347656 312.617188 369.226562 311.738281 369.539062 310.859375 C 369.820312 310.058594 370.292969 309.296875 370.457031 308.460938 C 370.515625 307.941406 370.523438 307.425781 370.484375 306.90625 C 370.484375 305.707031 371.085938 304.785156 372.054688 304.050781 C 372.460938 303.726562 372.78125 303.332031 373.019531 302.871094 C 373.347656 302.308594 373.839844 301.871094 374.15625 301.304688 C 374.371094 300.78125 374.628906 300.285156 374.925781 299.808594 C 375.316406 299.449219 375.660156 299.046875 375.949219 298.605469 C 376.199219 298.140625 376.414062 297.664062 376.59375 297.171875 C 376.679688 296.695312 376.867188 296.265625 377.160156 295.878906 C 377.570312 295.496094 377.949219 295.082031 378.296875 294.644531 C 378.738281 293.996094 379.390625 293.523438 379.820312 292.859375 C 380.046875 292.519531 380.230469 292.160156 380.371094 291.777344 C 380.441406 291.554688 380.414062 291.289062 380.484375 291.070312 C 380.644531 290.679688 380.90625 290.371094 381.265625 290.148438 C 381.703125 289.785156 382.144531 289.355469 382.53125 288.949219 C 382.769531 288.652344 383.046875 288.390625 383.359375 288.164062 C 383.890625 287.863281 384.335938 287.863281 384.789062 287.441406 C 385.511719 286.765625 386.152344 286.050781 386.925781 285.429688 C 387.804688 284.734375 388.628906 284.023438 389.417969 283.230469 C 389.945312 282.703125 390.738281 282.238281 391.019531 281.609375 C 391.203125 281.226562 391.457031 280.894531 391.683594 280.519531 C 391.90625 280.144531 391.945312 279.792969 392.121094 279.464844 C 392.421875 278.851562 392.765625 278.265625 393.152344 277.707031 C 393.511719 277.167969 393.835938 276.605469 394.125 276.027344 C 394.46875 275.523438 394.863281 275.0625 395.308594 274.648438 C 395.75 274.125 396.003906 273.5 396.472656 272.988281 C 396.90625 272.515625 397.289062 272.007812 397.625 271.460938 C 398.066406 270.792969 398.375 270.066406 398.855469 269.4375 C 399.1875 269 399.773438 268.433594 399.945312 267.945312 C 400.015625 267.738281 399.945312 267.53125 400.074219 267.351562 C 400.203125 267.171875 400.550781 267.007812 400.714844 266.757812 C 401.035156 266.292969 401.15625 265.675781 401.421875 265.183594 C 401.558594 264.945312 401.800781 264.742188 401.933594 264.511719 C 402.089844 264.136719 402.289062 263.785156 402.527344 263.457031 C 402.804688 263.09375 402.957031 262.683594 402.988281 262.230469 C 402.078125 263.109375 401.5 264.273438 400.789062 265.304688 C 400.304688 266.039062 399.660156 266.625 399.15625 267.335938 C 398.714844 267.949219 398.175781 268.453125 397.71875 269.039062 C 397.324219 269.589844 396.90625 270.117188 396.460938 270.625 C 395.140625 272 394.089844 273.597656 392.742188 274.9375 C 392.136719 275.519531 391.460938 276.007812 390.71875 276.40625 C 390.222656 276.652344 389.757812 276.945312 389.324219 277.285156 C 389.027344 277.546875 388.816406 277.886719 388.53125 278.164062 C 388.140625 278.492188 387.703125 278.730469 387.210938 278.875 C 386.074219 279.316406 385.117188 280.09375 384.074219 280.703125 C 382.386719 281.6875 380.277344 281.460938 378.960938 283.042969 C 378.601562 283.503906 378.347656 284.015625 378.191406 284.578125 C 377.925781 285.335938 377.503906 286.023438 377.226562 286.773438 C 376.578125 288.535156 374.695312 289.617188 374.066406 291.402344 C 373.921875 291.960938 373.644531 292.4375 373.230469 292.835938 C 372.59375 293.460938 372.054688 294.15625 371.601562 294.925781 C 370.882812 296.207031 370.503906 297.910156 369.214844 298.835938 C 368.75 299.171875 368.226562 299.277344 367.796875 299.714844 C 367.53125 299.964844 367.332031 300.273438 367.09375 300.546875 C 366.65625 300.984375 366.164062 301.347656 365.617188 301.632812 C 364.851562 302.125 364.199219 302.773438 363.441406 303.285156 C 362.679688 303.796875 361.789062 304.378906 361.027344 304.964844 C 360.613281 305.285156 360.371094 305.734375 359.945312 306.042969 C 359.441406 306.347656 358.972656 306.695312 358.539062 307.09375 C 357.859375 307.820312 356.980469 308.28125 356.753906 309.289062 C 356.664062 309.746094 356.417969 310.09375 356.023438 310.339844 C 355.539062 310.695312 355.101562 311.097656 354.707031 311.554688 C 353.855469 312.367188 353.105469 313.265625 352.457031 314.25 C 352.136719 314.902344 351.714844 315.476562 351.179688 315.972656 C 350.773438 316.296875 350.308594 316.464844 349.789062 316.476562 C 348.796875 316.511719 347.902344 315.941406 346.9375 315.816406 C 345.648438 315.648438 345.179688 316.21875 344.472656 317.191406 C 343.554688 318.445312 342.554688 319.1875 342.003906 320.710938 C 341.648438 321.691406 341.527344 323.035156 340.210938 322.9375 C 340.148438 323.867188 340.140625 324.097656 339.332031 324.621094 C 338.980469 324.851562 338.660156 324.789062 338.363281 325.140625 C 338.0625 325.492188 337.898438 326.328125 337.566406 326.78125 C 336.96875 327.617188 337.074219 327.773438 336.886719 328.695312 C 336.785156 329.230469 336.542969 329.691406 336.15625 330.078125 C 335.496094 330.742188 334.398438 331.214844 333.605469 331.730469 C 332.816406 332.242188 332.519531 332.015625 331.628906 332.148438 C 330.359375 332.339844 329.730469 333.78125 328.761719 334.5 C 327.117188 335.726562 325.160156 334.902344 323.679688 336.125 C 322.054688 337.476562 321.601562 339.554688 320.46875 341.273438 C 319.886719 342.152344 319.644531 342.285156 319.636719 343.46875 C 319.628906 344.65625 319.660156 345.148438 319.199219 346.050781 C 318.992188 346.441406 318.78125 346.429688 318.714844 347.066406 C 318.667969 347.507812 318.824219 347.898438 318.714844 348.328125 C 318.523438 349.042969 317.515625 349.515625 317.9375 350.316406 C 316.652344 351.429688 315.066406 351.832031 313.882812 353.171875 C 313.511719 353.503906 313.214844 353.898438 313.003906 354.351562 C 312.8125 354.539062 312.582031 354.636719 312.3125 354.648438 C 311.992188 354.933594 311.742188 355.332031 311.40625 355.597656 C 310.996094 355.917969 310.523438 356.039062 310.085938 356.378906 C 309.449219 356.929688 309.589844 357.144531 309.316406 357.863281 L 308.558594 359.589844 C 308.164062 360.46875 308.480469 360.578125 307.421875 360.863281 C 306.566406 361.09375 306.179688 361.039062 305.558594 361.804688 C 304.800781 362.742188 304.613281 363.949219 303.832031 364.882812 C 301.894531 367.160156 298.722656 368.296875 297.628906 371.285156 C 297.214844 372.410156 297.289062 373.371094 296.828125 374.5625 C 296.089844 376.460938 294.664062 377.996094 293.386719 379.574219 C 291.628906 381.75 289.804688 384.035156 287.929688 386.113281 C 286.585938 387.597656 284.703125 388.980469 283.664062 390.699219 C 282.683594 392.316406 282.863281 393.992188 282.3125 395.703125 C 282.007812 396.675781 281.273438 397.484375 280.871094 398.402344 C 280.300781 399.722656 280.300781 400.601562 280.078125 402.046875 C 279.5 405.730469 278.121094 407.464844 275.828125 410.222656 C 272.523438 414.210938 269.238281 418.179688 265.914062 422.15625 C 264.28125 424.015625 263.085938 426.121094 262.335938 428.480469 C 260.285156 434.976562 256.472656 440.628906 254.3125 447.0625 C 253.5625 449.308594 253.703125 451.761719 252.136719 453.578125 C 251.40625 454.417969 250.347656 455.003906 249.542969 455.777344 C 246.660156 458.519531 244.679688 460.972656 241.070312 462.863281 C 239.28125 463.792969 236.445312 464.863281 234.914062 466.234375 C 233.621094 467.398438 233.203125 469.53125 232.519531 471.070312 C 231.832031 472.605469 231.535156 474.378906 230.71875 475.902344 C 229.476562 478.195312 227.28125 479.808594 225.167969 481.3125 C 222.730469 483.046875 222.144531 485.109375 220.484375 487.523438 C 219.007812 489.671875 216.96875 491.21875 215.386719 493.320312 C 214.148438 494.976562 213.1875 496.796875 212.097656 498.546875 C 211.691406 499.257812 211.238281 499.9375 210.742188 500.589844 C 210.304688 501.109375 209.691406 501.386719 209.3125 501.949219 C 209.089844 502.277344 209.03125 502.691406 208.800781 503.011719 C 208.566406 503.332031 208.300781 503.363281 208.070312 503.5625 C 207.871094 503.773438 207.722656 504.015625 207.628906 504.292969 C 207.226562 504.996094 206.789062 505.675781 206.3125 506.332031 C 206.03125 506.769531 205.726562 507.101562 205.433594 507.496094 C 204.992188 508.027344 204.808594 508.757812 204.492188 509.367188 C 204.082031 510.03125 203.738281 510.726562 203.460938 511.457031 C 203.363281 511.925781 203.21875 512.375 203.019531 512.808594 C 202.714844 513.367188 202.230469 513.789062 201.902344 514.328125 C 201.730469 514.605469 201.636719 514.902344 201.464844 515.171875 C 201.292969 515.4375 201.082031 515.5625 200.90625 515.773438 C 200.550781 516.304688 200.257812 516.867188 200.027344 517.460938 C 199.808594 517.828125 199.617188 518.210938 199.449219 518.605469 C 199.285156 519.109375 199.40625 519.601562 199.332031 520.113281 C 199.234375 520.441406 199.113281 520.757812 198.96875 521.070312 C 198.898438 521.347656 198.96875 521.632812 198.914062 521.917969 C 198.804688 522.230469 198.660156 522.523438 198.476562 522.796875 C 198.191406 523.386719 197.839844 523.9375 197.417969 524.441406 C 196.710938 525.242188 195.972656 526.046875 195.300781 526.871094 C 194.726562 527.453125 194.199219 528.070312 193.714844 528.726562 C 193.304688 529.402344 193.074219 530.15625 192.394531 530.636719 C 191.71875 531.113281 191.363281 532.058594 191.078125 532.863281 C 190.8125 533.484375 190.457031 534.046875 190.015625 534.554688 C 189.648438 535.097656 189.316406 535.660156 189.023438 536.25 C 188.179688 537.75 187.46875 539.3125 186.890625 540.933594 C 186.554688 541.933594 185.828125 542.800781 185.210938 543.652344 C 184.683594 544.417969 184.097656 545.140625 183.453125 545.8125 C 183.027344 546.210938 182.640625 546.644531 182.304688 547.117188 C 182.023438 547.582031 181.695312 548.007812 181.316406 548.394531 C 180.320312 549.324219 178.894531 550.050781 178.160156 551.214844 C 177.199219 552.730469 175.792969 553.890625 174.910156 555.492188 C 174.554688 556.132812 174.195312 556.777344 173.792969 557.390625 C 173.386719 558.007812 172.832031 558.496094 172.378906 559.078125 C 172.113281 559.421875 170.507812 561.277344 170.945312 561.605469 C 171.222656 561.367188 171.515625 561.144531 171.824219 560.941406 L 172.109375 560.765625 C 172.5 560.570312 172.855469 560.320312 173.171875 560.019531 C 173.523438 559.554688 173.847656 559.074219 174.144531 558.574219 C 174.746094 557.734375 175.664062 557.253906 176.417969 556.582031 C 177.085938 556.039062 177.714844 555.453125 178.308594 554.824219 C 178.726562 554.332031 179.234375 553.96875 179.660156 553.503906 C 179.960938 553.179688 180.101562 552.71875 180.46875 552.441406 C 180.820312 552.242188 181.191406 552.097656 181.582031 552.003906 C 183.085938 551.425781 184.085938 550.023438 185.34375 549.109375 C 185.894531 548.710938 186.523438 548.429688 187.058594 548.011719 C 187.378906 547.734375 187.683594 547.441406 187.96875 547.132812 C 188.378906 546.742188 188.972656 546.40625 189.253906 545.902344 C 189.480469 545.453125 189.75 545.023438 190.050781 544.621094 C 190.4375 544.230469 190.785156 543.808594 191.09375 543.355469 C 191.421875 542.757812 191.816406 542.203125 192.277344 541.699219 C 192.625 541.304688 192.796875 540.820312 193.128906 540.410156 C 193.652344 539.769531 193.945312 538.992188 194.449219 538.363281 C 194.765625 538.0625 195.035156 537.722656 195.253906 537.34375 C 195.355469 536.941406 195.503906 536.554688 195.691406 536.1875 C 195.878906 536.003906 196.089844 535.855469 196.328125 535.746094 C 196.769531 535.484375 197.0625 535.140625 197.472656 534.867188 C 198.703125 534.050781 199.957031 533.347656 201.277344 532.628906 C 202.25 532.109375 203.082031 531.144531 203.917969 530.433594 C 204.484375 529.957031 204.933594 529.386719 205.261719 528.722656 C 205.609375 527.820312 205.871094 526.890625 206.046875 525.941406 C 206.164062 525.421875 206.644531 525.132812 206.800781 524.621094 C 206.953125 524.113281 206.757812 523.703125 206.828125 523.257812 C 206.914062 522.667969 207.382812 522.042969 207.601562 521.480469 C 207.773438 521.039062 207.976562 520.597656 208.175781 520.160156 C 208.375 519.71875 208.714844 519.554688 209.167969 519.28125 C 209.621094 519.007812 209.886719 518.367188 210.285156 518.199219 C 210.429688 518.140625 210.59375 518.230469 210.726562 518.199219 C 210.925781 518.148438 210.9375 518.070312 211.097656 517.996094 C 211.375 517.921875 211.640625 517.824219 211.898438 517.703125 C 212.160156 517.519531 212.410156 517.085938 212.664062 516.855469 C 213.101562 516.472656 213.625 516.289062 213.800781 515.726562 C 213.878906 515.484375 213.835938 515.191406 214.039062 514.992188 C 214.242188 514.789062 214.804688 514.699219 215.097656 514.507812 C 215.5 514.246094 215.835938 513.804688 216.21875 513.53125 C 216.601562 513.257812 217.058594 513 217.464844 512.710938 C 218.03125 512.304688 218.34375 511.6875 218.867188 511.226562 C 219.390625 510.765625 220.007812 510.691406 220.625 510.441406 C 221 510.285156 221.332031 510.0625 221.621094 509.78125 C 222.699219 508.792969 224.039062 507.675781 224.476562 506.265625 C 224.824219 505.148438 224.335938 504.066406 225.355469 503.121094 C 225.792969 502.714844 226.753906 502.828125 227.226562 502.425781 C 228.105469 501.703125 228.15625 500.230469 228.695312 499.320312 C 229.191406 498.46875 229.824219 498.167969 230.453125 497.484375 C 233.296875 494.40625 234.511719 489.90625 237.441406 487.191406 C 239.511719 485.285156 242 483.984375 244.089844 482.019531 C 246.410156 479.820312 249.761719 478.898438 251.964844 476.6875 C 253.28125 475.328125 254.363281 472.839844 255.242188 471.417969 Z M 255.242188 471.417969 " fill-opacity="1" fill-rule="nonzero"/></g><g clip-path="url(#449a7b94a2)"><path fill="#e1a8f0" d="M 172.390625 470.742188 C 172.625 470.53125 172.828125 470.289062 172.992188 470.019531 C 173.070312 469.734375 173.179688 469.457031 173.316406 469.195312 C 173.460938 469.066406 173.621094 468.964844 173.796875 468.886719 C 174.117188 468.699219 174.351562 468.449219 174.675781 468.265625 C 175.605469 467.683594 176.542969 467.183594 177.542969 466.675781 C 178.257812 466.222656 178.917969 465.695312 179.519531 465.09375 C 179.945312 464.761719 180.28125 464.359375 180.53125 463.882812 C 180.792969 463.242188 180.992188 462.585938 181.125 461.910156 C 181.210938 461.539062 181.5625 461.332031 181.691406 460.980469 C 181.820312 460.628906 181.660156 460.332031 181.691406 460.015625 C 181.84375 459.574219 182.039062 459.152344 182.277344 458.746094 C 182.402344 458.425781 182.5625 458.105469 182.714844 457.796875 C 182.871094 457.492188 183.121094 457.359375 183.464844 457.164062 C 183.804688 456.972656 184.003906 456.515625 184.304688 456.402344 C 184.414062 456.355469 184.535156 456.402344 184.636719 456.402344 C 184.738281 456.402344 184.796875 456.3125 184.917969 456.257812 C 185.125 456.207031 185.324219 456.136719 185.519531 456.046875 C 185.71875 455.917969 185.90625 455.609375 186.097656 455.445312 C 186.417969 455.175781 186.820312 455.046875 186.976562 454.648438 C 187.03125 454.476562 187 454.269531 187.152344 454.125 C 187.300781 453.976562 187.726562 453.917969 187.953125 453.78125 C 188.25 453.597656 188.503906 453.285156 188.796875 453.085938 C 189.085938 452.886719 189.429688 452.707031 189.730469 452.503906 C 190.105469 452.175781 190.457031 451.824219 190.785156 451.449219 C 191.191406 451.183594 191.632812 451 192.105469 450.894531 C 192.382812 450.777344 192.632812 450.621094 192.851562 450.414062 C 193.660156 449.710938 194.667969 448.917969 194.996094 447.925781 C 195.261719 447.128906 194.890625 446.351562 195.664062 445.6875 C 196.003906 445.402344 196.714844 445.480469 197.078125 445.195312 C 197.722656 444.679688 197.777344 443.648438 198.179688 442.996094 C 198.585938 442.347656 199.03125 442.179688 199.5 441.679688 C 201.644531 439.480469 202.554688 436.300781 204.773438 434.375 C 206.328125 433.015625 208.207031 432.09375 209.78125 430.699219 C 211.539062 429.148438 214.054688 428.5 215.714844 426.910156 C 216.152344 426.46875 216.441406 425.972656 216.941406 425.671875 C 217.324219 425.5 217.644531 425.25 217.902344 424.921875 C 218.394531 424.25 218.601562 423.296875 219.222656 422.726562 C 220.214844 421.816406 220.199219 420.417969 221.007812 419.292969 C 221.816406 418.167969 222.878906 417.535156 223.78125 416.589844 C 224.347656 415.996094 224.660156 415.328125 225.40625 414.886719 C 225.847656 414.613281 226.421875 414.449219 226.90625 414.226562 C 227.53125 413.90625 228.128906 413.542969 228.699219 413.132812 C 228.96875 412.933594 229.253906 412.757812 229.550781 412.605469 C 230.183594 412.285156 230.339844 411.835938 230.765625 411.289062 C 231.351562 410.535156 231.480469 410.996094 232.175781 410.675781 C 232.871094 410.355469 232.707031 410.046875 233.054688 409.359375 C 233.523438 408.589844 234.042969 407.855469 234.613281 407.160156 C 235.511719 405.894531 236.113281 404.460938 236.988281 403.175781 C 238.230469 401.359375 239.335938 399.410156 240.824219 397.761719 C 241.261719 397.296875 241.566406 396.882812 241.953125 396.382812 C 242.339844 395.878906 242.851562 395.6875 243.21875 395.234375 C 243.539062 394.835938 243.804688 394.40625 244.023438 393.945312 C 244.53125 392.882812 245.199219 391.929688 246.019531 391.085938 C 246.253906 390.847656 246.589844 390.722656 246.84375 390.511719 C 247.140625 390.234375 247.390625 389.917969 247.59375 389.566406 C 248.21875 388.753906 249.207031 388.386719 249.8125 387.511719 C 250.300781 386.808594 250.691406 385.996094 251.128906 385.246094 C 251.683594 384.253906 252.644531 383.601562 253.054688 382.535156 C 253.3125 381.882812 253.390625 381.15625 253.671875 380.523438 C 254.140625 379.46875 254.671875 378.109375 255.515625 377.292969 C 255.742188 377.070312 256.246094 376.875 256.398438 376.632812 C 256.65625 376.25 256.398438 375.382812 256.398438 374.957031 C 256.488281 373.890625 257.246094 372.964844 257.277344 371.878906 C 257.277344 371.410156 257.367188 370.960938 257.550781 370.53125 C 257.753906 370.136719 257.859375 369.71875 257.859375 369.273438 C 257.882812 368.769531 257.667969 367.824219 257.816406 367.316406 C 257.960938 366.992188 258.136719 366.691406 258.347656 366.40625 C 258.652344 365.867188 258.789062 365.226562 259.269531 364.78125 C 259.578125 364.492188 259.996094 364.296875 260.3125 363.972656 C 260.730469 363.53125 261.136719 363.125 261.523438 362.652344 C 262.402344 361.601562 263.484375 361.167969 264.507812 360.316406 C 265.003906 359.886719 265.460938 359.417969 265.875 358.910156 C 266.257812 358.472656 266.671875 358.0625 267.105469 357.671875 C 267.765625 357.058594 268.195312 356.273438 268.832031 355.675781 C 269.265625 355.199219 269.75 354.777344 270.277344 354.40625 C 270.554688 354.261719 270.921875 354.292969 271.15625 354.167969 C 271.597656 353.949219 271.640625 353.582031 271.988281 353.253906 C 272.363281 352.996094 272.75 352.765625 273.15625 352.566406 C 273.992188 351.972656 274.277344 350.992188 274.914062 350.238281 C 275.441406 349.636719 275.996094 349.058594 276.582031 348.511719 C 277.425781 347.675781 277.828125 347.027344 277.8125 345.828125 C 277.8125 345.152344 277.722656 344.617188 278.09375 344.023438 C 278.417969 343.507812 278.734375 343.054688 279.035156 342.503906 C 279.472656 341.707031 280.246094 341.324219 280.726562 340.625 C 280.886719 340.246094 281.011719 339.851562 281.105469 339.449219 C 281.371094 338.875 281.699219 338.347656 282.097656 337.855469 C 282.398438 337.371094 282.585938 336.855469 282.863281 336.359375 C 283.710938 334.832031 284.574219 332.84375 285.917969 331.726562 C 286.449219 331.355469 286.929688 330.929688 287.359375 330.445312 C 287.78125 329.886719 288.074219 329.261719 288.238281 328.582031 C 288.453125 327.671875 288.105469 327.207031 288.863281 326.464844 C 289.761719 325.640625 290.753906 324.945312 291.839844 324.382812 L 294.59375 321.84375 C 295.507812 320.640625 296.503906 319.503906 297.574219 318.441406 C 297.929688 318.113281 298.277344 317.78125 298.617188 317.433594 C 299.027344 316.996094 299.226562 316.488281 299.609375 316.058594 C 300.078125 315.542969 300.582031 314.996094 301.097656 314.523438 C 301.542969 314.226562 301.933594 313.871094 302.273438 313.457031 C 302.640625 312.875 303.382812 312.605469 303.566406 311.910156 C 303.609375 311.601562 303.679688 311.300781 303.777344 311.007812 C 304.066406 310.394531 303.976562 309.765625 304.21875 309.136719 C 304.492188 308.585938 304.71875 308.015625 304.90625 307.429688 C 304.945312 307.0625 304.945312 306.699219 304.90625 306.332031 C 304.917969 305.914062 305.027344 305.523438 305.238281 305.164062 C 305.449219 304.800781 305.734375 304.515625 306.09375 304.300781 C 306.394531 304.074219 306.636719 303.792969 306.820312 303.460938 C 307.066406 303.066406 307.433594 302.753906 307.675781 302.347656 C 307.839844 301.976562 308.03125 301.621094 308.257812 301.285156 C 308.550781 301.035156 308.804688 300.75 309.027344 300.433594 C 309.214844 300.105469 309.375 299.765625 309.511719 299.414062 C 309.578125 299.070312 309.726562 298.765625 309.949219 298.5 C 310.265625 298.226562 310.558594 297.933594 310.828125 297.621094 C 311.171875 297.179688 311.652344 296.824219 311.976562 296.347656 C 312.15625 296.113281 312.300781 295.859375 312.414062 295.585938 C 312.46875 295.425781 312.445312 295.238281 312.5 295.082031 C 312.625 294.800781 312.820312 294.582031 313.089844 294.429688 C 313.417969 294.167969 313.734375 293.859375 314.042969 293.574219 C 314.222656 293.363281 314.429688 293.175781 314.660156 293.019531 C 315.0625 292.804688 315.398438 292.804688 315.742188 292.507812 C 316.285156 292.027344 316.765625 291.519531 317.351562 291.078125 C 318.003906 290.59375 318.625 290.078125 319.222656 289.527344 C 319.628906 289.15625 320.203125 288.824219 320.433594 288.378906 C 320.574219 288.105469 320.78125 287.871094 320.933594 287.601562 C 321.089844 287.332031 321.132812 287.085938 321.25 286.855469 C 321.476562 286.417969 321.734375 286.003906 322.023438 285.605469 C 322.292969 285.222656 322.539062 284.824219 322.761719 284.410156 C 323.019531 284.050781 323.3125 283.722656 323.640625 283.429688 C 323.980469 283.0625 324.164062 282.617188 324.519531 282.257812 C 324.847656 281.917969 325.140625 281.550781 325.398438 281.15625 C 325.683594 280.664062 325.996094 280.1875 326.328125 279.722656 C 326.648438 279.40625 326.925781 279.050781 327.148438 278.660156 C 327.203125 278.511719 327.148438 278.371094 327.246094 278.222656 C 327.34375 278.070312 327.601562 277.980469 327.730469 277.804688 C 327.972656 277.46875 328.050781 277.035156 328.261719 276.683594 C 328.363281 276.515625 328.546875 276.382812 328.644531 276.203125 C 328.761719 275.933594 328.910156 275.683594 329.082031 275.449219 C 329.296875 275.191406 329.414062 274.898438 329.441406 274.566406 C 328.8125 275.238281 328.265625 275.972656 327.800781 276.765625 C 327.429688 277.289062 326.949219 277.699219 326.570312 278.207031 C 326.246094 278.648438 325.828125 279.003906 325.484375 279.421875 C 325.140625 279.839844 324.894531 280.191406 324.535156 280.546875 C 323.550781 281.523438 322.753906 282.65625 321.734375 283.625 C 321.273438 284.039062 320.765625 284.390625 320.214844 284.667969 C 319.839844 284.847656 319.492188 285.058594 319.164062 285.308594 C 318.9375 285.492188 318.78125 285.746094 318.566406 285.925781 C 318.265625 286.160156 317.9375 286.328125 317.570312 286.429688 C 316.75 286.808594 315.960938 287.246094 315.207031 287.746094 C 313.9375 288.445312 312.34375 288.28125 311.355469 289.40625 C 311.085938 289.730469 310.890625 290.09375 310.777344 290.5 C 310.574219 291.039062 310.257812 291.523438 310.046875 292.066406 C 309.558594 293.324219 308.144531 294.089844 307.667969 295.355469 C 307.558594 295.757812 307.347656 296.097656 307.039062 296.375 C 306.566406 296.804688 306.160156 297.292969 305.820312 297.835938 C 305.28125 298.75 304.992188 299.957031 304.023438 300.613281 C 303.652344 300.792969 303.292969 300.996094 302.953125 301.226562 C 302.753906 301.414062 302.605469 301.628906 302.425781 301.820312 C 302.089844 302.132812 301.71875 302.390625 301.3125 302.589844 C 300.734375 302.941406 300.25 303.402344 299.671875 303.769531 C 299.097656 304.132812 298.429688 304.542969 297.855469 304.960938 C 297.542969 305.1875 297.359375 305.503906 297.042969 305.726562 C 296.664062 305.9375 296.3125 306.1875 295.984375 306.472656 C 295.46875 306.988281 294.804688 307.316406 294.632812 308.023438 C 294.5625 308.355469 294.378906 308.601562 294.085938 308.765625 C 293.714844 309.023438 293.382812 309.316406 293.078125 309.644531 C 292.867188 309.871094 292.640625 310.082031 292.398438 310.277344 C 291.246094 311.15625 290.871094 312.628906 289.589844 313.46875 C 289.175781 313.730469 288.742188 313.953125 288.292969 314.136719 C 287.535156 314.417969 286.800781 314.746094 286.09375 315.132812 C 285.082031 315.726562 284.21875 316.492188 283.511719 317.429688 C 282.886719 318.363281 282.539062 319.261719 281.710938 320.066406 C 281.171875 320.546875 280.863281 321.144531 280.789062 321.863281 C 280.402344 321.839844 280.027344 321.886719 279.660156 322.003906 C 279.332031 322.21875 279.351562 322.609375 278.890625 322.78125 C 278.429688 322.953125 277.847656 322.648438 277.367188 322.871094 C 276.816406 323.128906 276.46875 323.847656 275.910156 324.160156 C 274.863281 324.742188 273.539062 324.601562 272.449219 325.039062 C 271.496094 325.441406 270.550781 326.15625 269.582031 326.648438 C 267.820312 327.472656 266.300781 328.621094 265.019531 330.089844 C 264.019531 331.308594 264.101562 332.027344 263.964844 333.460938 C 263.863281 334.484375 263.269531 335.421875 263.039062 336.414062 C 262.664062 338.015625 261.230469 338.871094 260.539062 340.308594 C 260.246094 340.902344 260.191406 341.816406 259.730469 342.273438 C 259.367188 342.636719 259.191406 342.429688 258.757812 342.660156 C 258.277344 342.945312 257.847656 343.292969 257.46875 343.699219 C 256.898438 344.253906 256.355469 344.730469 255.816406 345.335938 C 254.257812 347.0625 251.894531 348.082031 250.445312 350.082031 C 250.210938 350.402344 250.101562 350.898438 249.804688 351.136719 C 249.503906 351.375 249.074219 351.253906 248.738281 351.453125 C 248.285156 351.84375 247.851562 352.257812 247.441406 352.699219 C 246.980469 353.101562 246.488281 353.179688 246.492188 353.941406 C 246.253906 353.941406 246.03125 354.003906 245.828125 354.132812 C 245.628906 354.261719 245.476562 354.433594 245.375 354.652344 C 244.890625 355.53125 245.355469 355.585938 244.414062 356.214844 C 243.617188 356.746094 243.738281 356.6875 243.535156 357.5 C 243.304688 358.460938 243.453125 358.917969 242.761719 359.761719 C 242.066406 360.5 241.59375 361.359375 241.351562 362.347656 C 241.199219 363.050781 241.453125 363.492188 240.84375 364.03125 C 240.59375 364.195312 240.324219 364.328125 240.035156 364.425781 C 239.875 364.511719 239.757812 364.640625 239.683594 364.808594 C 239.609375 364.980469 239.59375 365.152344 239.640625 365.332031 C 239.574219 365.769531 239.351562 366.097656 238.964844 366.316406 C 238.753906 366.707031 238.65625 367.128906 238.664062 367.574219 C 238.53125 367.886719 238.300781 368.09375 237.972656 368.191406 C 237.898438 368.441406 237.847656 368.691406 237.8125 368.949219 C 237.269531 369.777344 237.121094 369.722656 237.011719 370.84375 C 236.902344 371.964844 236.726562 371.984375 236.132812 372.808594 C 235.839844 373.277344 235.453125 373.648438 234.96875 373.914062 C 234.582031 373.894531 234.277344 374.042969 234.050781 374.355469 C 234.0625 374.992188 233.984375 375.617188 233.820312 376.230469 C 233.398438 376.617188 232.933594 376.933594 232.417969 377.179688 C 232.238281 377.589844 232.050781 378 231.847656 378.398438 C 231.40625 378.785156 231.003906 379.175781 230.589844 379.578125 C 230.273438 380.078125 230.03125 380.609375 229.859375 381.175781 C 229.308594 381.96875 228.6875 382.496094 228.21875 383.34375 C 227.808594 384.09375 227.480469 384.980469 227.011719 385.691406 C 226.136719 387.035156 225.503906 388.480469 225.109375 390.035156 C 224.628906 391.65625 223.679688 392.722656 223.550781 394.429688 C 223.519531 395.359375 223.308594 396.246094 222.921875 397.09375 C 222.484375 397.972656 221.972656 398.957031 221.511719 399.855469 C 221.519531 400.328125 221.316406 400.679688 220.902344 400.90625 C 220.230469 401.105469 219.71875 401.503906 219.359375 402.105469 C 218.796875 403.238281 219.535156 403.621094 218.515625 404.558594 C 217.566406 405.4375 216.414062 405.574219 215.621094 406.71875 C 214.546875 408.289062 213.257812 409.640625 212.183594 411.140625 C 211.746094 411.78125 211.0625 412.214844 210.640625 412.875 C 210.132812 413.671875 210.058594 414.492188 209.242188 415.128906 C 208.667969 415.527344 208.125 415.957031 207.605469 416.425781 C 206.207031 417.832031 204.324219 418.183594 202.839844 419.445312 C 201.863281 420.277344 201.550781 421.789062 201.039062 422.875 C 200.523438 423.960938 200.292969 425.226562 199.675781 426.304688 C 198.742188 427.929688 197.089844 429.074219 195.5 430.140625 C 193.660156 431.375 193.222656 432.839844 191.980469 434.535156 C 190.871094 436.0625 189.34375 437.171875 188.140625 438.65625 C 187.207031 439.832031 186.484375 441.125 185.664062 442.363281 C 185.355469 442.871094 185.015625 443.355469 184.644531 443.820312 C 184.320312 444.183594 183.855469 444.382812 183.570312 444.78125 C 183.402344 445.019531 183.359375 445.308594 183.183594 445.539062 C 183.007812 445.765625 182.804688 445.789062 182.632812 445.929688 C 182.460938 446.070312 182.421875 446.25 182.3125 446.449219 C 182.007812 446.949219 181.675781 447.429688 181.316406 447.894531 C 181.101562 448.195312 180.878906 448.445312 180.640625 448.722656 C 180.363281 449.136719 180.128906 449.578125 179.933594 450.039062 C 179.625 450.507812 179.363281 451.003906 179.15625 451.527344 C 179.105469 451.882812 179.011719 452.230469 178.875 452.5625 C 178.648438 452.957031 178.28125 453.257812 178.035156 453.640625 C 177.90625 453.84375 177.832031 454.046875 177.6875 454.242188 C 177.542969 454.4375 177.402344 454.519531 177.246094 454.683594 C 176.980469 455.054688 176.761719 455.457031 176.589844 455.882812 C 176.421875 456.140625 176.277344 456.414062 176.148438 456.695312 C 176.085938 457.046875 176.058594 457.40625 176.0625 457.761719 C 175.984375 457.996094 175.894531 458.222656 175.789062 458.445312 C 175.730469 458.640625 175.789062 458.84375 175.746094 459.046875 C 175.667969 459.277344 175.5625 459.488281 175.421875 459.6875 C 175.207031 460.109375 174.941406 460.5 174.628906 460.851562 C 174.097656 461.425781 173.539062 461.996094 173.03125 462.582031 C 172.605469 462.992188 172.203125 463.433594 171.835938 463.898438 C 171.527344 464.382812 171.351562 464.914062 170.832031 465.257812 C 170.308594 465.601562 170.050781 466.265625 169.828125 466.835938 C 169.621094 467.277344 169.355469 467.679688 169.027344 468.039062 C 168.746094 468.421875 168.5 468.824219 168.28125 469.246094 C 167.644531 470.304688 167.109375 471.414062 166.675781 472.570312 C 166.347656 473.277344 165.925781 473.921875 165.410156 474.5 C 165.011719 475.046875 164.570312 475.558594 164.089844 476.035156 C 163.765625 476.324219 163.472656 476.644531 163.210938 476.996094 C 163.003906 477.328125 162.753906 477.628906 162.46875 477.898438 C 161.722656 478.5625 160.648438 479.078125 160.089844 479.902344 C 159.367188 480.980469 158.308594 481.808594 157.644531 482.941406 C 157.375 483.382812 157.105469 483.855469 156.800781 484.292969 C 156.492188 484.726562 156.078125 485.074219 155.734375 485.492188 C 155.539062 485.734375 154.328125 487.066406 154.660156 487.285156 C 154.871094 487.117188 155.09375 486.960938 155.328125 486.8125 L 155.542969 486.6875 C 155.847656 486.542969 156.121094 486.355469 156.367188 486.125 C 156.628906 485.796875 156.867188 485.453125 157.082031 485.089844 C 157.519531 484.496094 158.226562 484.164062 158.792969 483.675781 C 159.296875 483.300781 159.769531 482.890625 160.21875 482.453125 C 160.53125 482.101562 160.917969 481.84375 161.238281 481.507812 C 161.460938 481.277344 161.578125 480.949219 161.84375 480.753906 C 162.109375 480.609375 162.390625 480.5 162.683594 480.433594 C 163.816406 480.023438 164.570312 479.023438 165.519531 478.378906 C 165.933594 478.09375 166.398438 477.890625 166.8125 477.597656 C 167.0625 477.410156 167.253906 477.1875 167.492188 476.984375 C 167.859375 476.738281 168.179688 476.445312 168.460938 476.105469 C 168.636719 475.785156 168.835938 475.484375 169.066406 475.199219 C 169.351562 474.917969 169.609375 474.617188 169.84375 474.296875 C 170.09375 473.867188 170.386719 473.476562 170.722656 473.117188 C 170.988281 472.839844 171.117188 472.492188 171.367188 472.203125 C 171.773438 471.742188 171.996094 471.191406 172.390625 470.742188 Z M 172.390625 470.742188 " fill-opacity="1" fill-rule="nonzero"/></g></svg>