<svg xmlns="http://www.w3.org/2000/svg" xmlns:xlink="http://www.w3.org/1999/xlink" width="816" zoomAndPan="magnify" viewBox="0 0 612 791.999994" height="1056" preserveAspectRatio="xMidYMid meet" version="1.0"><defs><clipPath id="89c034e21e"><path d="M 184 264.007812 L 482.851562 264.007812 L 482.851562 555.757812 L 184 555.757812 Z M 184 264.007812 " clip-rule="nonzero"/></clipPath></defs><g clip-path="url(#89c034e21e)"><path fill="#ff3131" d="M 319.484375 554.558594 C 317.222656 553.523438 314.058594 550.148438 313.359375 548.019531 C 313.070312 547.144531 312.140625 542.636719 311.292969 538.003906 C 310.101562 531.472656 309.554688 529.421875 308.871094 528.867188 C 307.636719 527.863281 301.304688 526.359375 299.859375 526.722656 C 299.046875 526.925781 296.539062 529.566406 292.066406 534.917969 C 288.433594 539.257812 284.777344 543.226562 283.933594 543.726562 C 282.816406 544.386719 281.585938 544.632812 279.421875 544.628906 C 276.621094 544.621094 275.894531 544.359375 267.0625 540.203125 C 256.96875 535.457031 254.609375 533.871094 253.28125 530.941406 C 251.949219 528 252.207031 525.75 254.929688 516.84375 C 256.316406 512.308594 257.445312 508.121094 257.445312 507.53125 C 257.445312 506.835938 256.640625 505.75 255.105469 504.367188 C 251.585938 501.195312 251.210938 501.28125 242.035156 507.425781 C 237.796875 510.269531 233.476562 512.84375 232.4375 513.15625 C 228.925781 514.203125 225.304688 513.714844 222.582031 511.816406 C 221.214844 510.867188 202.207031 487.320312 200.578125 484.566406 C 199.09375 482.050781 199.097656 477.523438 200.585938 475.128906 C 201.171875 474.191406 204.261719 471.015625 207.453125 468.074219 C 218.089844 458.273438 219.445312 456.863281 219.445312 455.613281 C 219.445312 454.222656 215.058594 440.597656 214.15625 439.1875 C 213.191406 437.671875 211.324219 437.300781 200.761719 436.535156 C 190.492188 435.78125 189.46875 435.53125 187.332031 433.230469 C 184.375 430.042969 184.433594 430.464844 184.28125 410.703125 C 184.117188 389.5625 184.230469 388.566406 187.171875 385.625 C 188.410156 384.378906 189.710938 383.546875 190.671875 383.378906 C 191.515625 383.230469 196.8125 382.828125 202.445312 382.480469 C 211.429688 381.925781 212.796875 381.738281 213.566406 380.96875 C 214.800781 379.734375 218.640625 367.269531 218.285156 365.644531 C 218.097656 364.792969 215.292969 361.777344 209.613281 356.335938 C 204.660156 351.578125 200.894531 347.585938 200.410156 346.574219 C 199.058594 343.722656 199.027344 340.964844 200.324219 338.160156 C 201.367188 335.910156 218.136719 313.457031 221.449219 309.878906 C 224.230469 306.871094 228.914062 305.773438 232.507812 307.277344 C 233.382812 307.644531 237.320312 309.929688 241.253906 312.351562 C 245.191406 314.78125 249.105469 316.878906 249.953125 317.023438 C 251.121094 317.210938 251.914062 316.988281 253.210938 316.125 C 256.097656 314.195312 257.445312 312.695312 257.445312 311.417969 C 257.445312 310.761719 256.421875 306.9375 255.160156 302.917969 C 252.410156 294.121094 252.164062 292.738281 252.867188 290.097656 C 253.824219 286.5 256.457031 284.542969 267.277344 279.378906 C 281.96875 272.371094 282.410156 272.457031 292.25 284.300781 C 295.558594 288.285156 298.757812 291.769531 299.367188 292.046875 C 300.21875 292.433594 301.171875 292.363281 303.566406 291.726562 C 308.121094 290.515625 309.074219 289.917969 309.628906 287.933594 C 309.894531 286.992188 310.625 283.234375 311.261719 279.578125 C 312.589844 271.960938 313.863281 268.847656 316.492188 266.761719 C 319.847656 264.101562 320.464844 264 332.863281 264.007812 C 345.414062 264.023438 346.167969 264.164062 349.570312 267.152344 C 352.019531 269.300781 352.863281 271.644531 354.46875 280.722656 C 355.273438 285.257812 356.195312 289.246094 356.53125 289.582031 C 356.859375 289.914062 358.847656 290.683594 360.945312 291.292969 C 364.644531 292.371094 364.804688 292.378906 366.25 291.605469 C 367.070312 291.164062 370.480469 287.609375 373.832031 283.703125 C 383.5625 272.355469 383.878906 272.304688 398.929688 279.640625 C 409.820312 284.949219 411.605469 286.359375 412.636719 290.4375 C 413.269531 292.957031 413.191406 293.382812 410.328125 302.773438 C 409.09375 306.835938 408.082031 310.597656 408.082031 311.132812 C 408.082031 312.3125 410.921875 315.566406 412.808594 316.539062 C 413.65625 316.980469 414.765625 317.148438 415.730469 316.996094 C 416.59375 316.855469 420.929688 314.523438 425.375 311.8125 C 432.769531 307.304688 433.679688 306.867188 436.121094 306.695312 C 439.40625 306.457031 442.148438 307.410156 444.121094 309.480469 C 447.433594 312.957031 465.671875 337.480469 466.164062 339.113281 C 467.773438 344.492188 466.378906 347.183594 457.949219 354.953125 C 449.085938 363.117188 447.914062 364.441406 447.914062 366.285156 C 447.914062 367.109375 448.851562 370.597656 450 374.046875 C 451.660156 379.03125 452.332031 380.472656 453.285156 381.097656 C 454.246094 381.730469 456.5625 382.003906 464.976562 382.488281 C 470.746094 382.824219 475.914062 383.238281 476.457031 383.402344 C 478.324219 383.984375 479.996094 385.507812 481.347656 387.867188 L 482.703125 390.234375 L 482.703125 428.265625 L 481.621094 430.589844 C 480.433594 433.128906 478.875 434.605469 476.617188 435.3125 C 475.8125 435.5625 471.757812 435.988281 467.601562 436.257812 C 455.816406 437.019531 454.902344 437.15625 453.421875 438.402344 C 452.363281 439.292969 451.597656 441.03125 449.546875 447.179688 C 448.148438 451.394531 446.996094 455.296875 446.996094 455.855469 C 446.996094 456.582031 449.46875 459.179688 455.714844 465.007812 C 465.761719 474.386719 467 476.160156 466.558594 480.46875 C 466.421875 481.8125 466 483.503906 465.625 484.230469 C 465.246094 484.949219 460.265625 491.382812 454.546875 498.523438 C 445.128906 510.300781 443.933594 511.617188 441.800781 512.609375 C 438.714844 514.046875 435.605469 514.058594 432.574219 512.636719 C 431.316406 512.046875 427.113281 509.472656 423.234375 506.914062 C 417.992188 503.453125 415.808594 502.261719 414.71875 502.261719 C 412.269531 502.261719 408.082031 505.816406 408.082031 507.890625 C 408.082031 508.351562 409.144531 512.175781 410.4375 516.378906 C 413.289062 525.648438 413.519531 528.445312 411.671875 531.589844 C 411.007812 532.726562 409.84375 534.105469 409.085938 534.660156 C 408.332031 535.21875 403.519531 537.679688 398.398438 540.128906 C 389.648438 544.316406 388.894531 544.59375 386.101562 544.621094 C 381.929688 544.660156 380.777344 543.800781 374.378906 535.820312 C 367.871094 527.714844 366.699219 526.542969 365.105469 526.558594 C 362.941406 526.570312 357.199219 528.289062 356.605469 529.101562 C 356.285156 529.539062 355.46875 533.214844 354.785156 537.269531 C 353.09375 547.363281 352.542969 549.132812 350.332031 551.535156 C 346.882812 555.277344 346.257812 555.414062 332.960938 555.40625 C 322.671875 555.398438 321.101562 555.296875 319.484375 554.558594 M 342 531.199219 C 344.066406 520.210938 344.703125 518.558594 347.414062 517.152344 C 349.023438 516.320312 366.25 511.855469 368.933594 511.574219 C 370.148438 511.445312 371.253906 511.660156 372.226562 512.207031 C 373.027344 512.660156 376.804688 516.691406 380.617188 521.164062 C 384.433594 525.636719 387.609375 529.296875 387.679688 529.296875 C 387.75 529.296875 390 528.269531 392.679688 527.015625 C 395.914062 525.5 397.550781 524.484375 397.550781 523.992188 C 397.550781 523.582031 396.414062 518.941406 395.03125 513.675781 C 393.648438 508.414062 392.511719 503.464844 392.511719 502.679688 C 392.511719 499.953125 393.769531 498.351562 398.84375 494.570312 C 401.53125 492.574219 405.648438 489.246094 407.988281 487.175781 C 410.332031 485.109375 412.824219 483.210938 413.527344 482.964844 C 415.574219 482.253906 417.621094 483.257812 427.449219 489.808594 C 432.429688 493.132812 436.683594 495.847656 436.898438 495.847656 C 437.324219 495.847656 449.191406 481.515625 449.5625 480.550781 C 449.699219 480.191406 446.207031 476.457031 440.957031 471.359375 C 436.097656 466.632812 431.761719 462.222656 431.320312 461.550781 C 430.085938 459.679688 430.351562 457.277344 432.378906 451.949219 C 436.164062 442.011719 437.882812 436.980469 439.027344 432.460938 C 441.160156 424.03125 441.195312 424.007812 456.382812 422.351562 C 462.425781 421.699219 467.53125 421.15625 467.726562 421.160156 C 467.917969 421.160156 468.019531 415.851562 467.953125 409.363281 L 467.832031 397.566406 L 456.15625 396.402344 C 443.6875 395.15625 442.355469 394.800781 440.9375 392.34375 C 440.550781 391.691406 439.476562 388.46875 438.546875 385.191406 C 437.613281 381.917969 435.605469 375.753906 434.085938 371.496094 C 431.851562 365.230469 431.375 363.40625 431.578125 361.898438 C 431.804688 360.203125 432.625 359.234375 440.785156 351.101562 C 445.710938 346.191406 449.746094 342.011719 449.746094 341.820312 C 449.746094 341.40625 437.398438 325.398438 437.078125 325.398438 C 436.957031 325.398438 433.199219 327.644531 428.726562 330.386719 C 418.445312 336.691406 417.910156 336.964844 415.746094 336.933594 C 413.523438 336.902344 412.550781 336.269531 407.394531 331.515625 C 405.128906 329.421875 401.335938 326.214844 398.964844 324.378906 C 391.429688 318.542969 391.382812 318.3125 394.980469 305.332031 C 396.394531 300.242188 397.550781 295.816406 397.550781 295.5 C 397.550781 294.921875 388.652344 290.078125 387.640625 290.101562 C 387.359375 290.113281 384.074219 293.542969 380.351562 297.730469 C 376.625 301.917969 372.945312 305.738281 372.171875 306.207031 C 370.246094 307.382812 368.371094 307.289062 362.753906 305.730469 C 360.109375 304.996094 355.609375 303.839844 352.753906 303.160156 C 347.03125 301.804688 344.898438 300.484375 344.023438 297.769531 C 343.765625 296.960938 342.8125 292.484375 341.910156 287.824219 C 341.007812 283.164062 340.167969 278.988281 340.035156 278.546875 C 339.824219 277.828125 339.058594 277.746094 332.570312 277.746094 L 325.339844 277.746094 L 323.628906 286.792969 C 322.691406 291.769531 321.730469 296.601562 321.496094 297.519531 C 320.960938 299.652344 318.640625 301.714844 316.015625 302.390625 C 314.902344 302.675781 310.382812 303.847656 305.980469 304.996094 C 297.269531 307.257812 294.9375 307.488281 293.117188 306.261719 C 292.464844 305.824219 288.902344 302.011719 285.203125 297.792969 C 281.496094 293.570312 278.269531 290.117188 278.023438 290.117188 C 276.910156 290.117188 267.460938 295.253906 267.648438 295.753906 C 268.449219 297.851562 273.015625 315.46875 273.015625 316.464844 C 273.015625 318.914062 271.644531 320.703125 267.21875 324.03125 C 264.828125 325.828125 260.632812 329.4375 257.894531 332.050781 C 252.367188 337.324219 250.996094 337.976562 247.902344 336.757812 C 246.964844 336.390625 242.351562 333.683594 237.644531 330.746094 C 232.933594 327.804688 228.921875 325.40625 228.730469 325.417969 C 228.371094 325.433594 216.621094 340.683594 216.300781 341.535156 C 216.207031 341.785156 220.160156 346.035156 225.078125 350.988281 C 232.394531 358.351562 234.078125 360.285156 234.320312 361.605469 C 234.550781 362.859375 234.089844 364.804688 232.265625 370.3125 C 230.96875 374.210938 229.09375 380.597656 228.097656 384.507812 C 227.101562 388.410156 225.917969 392.109375 225.46875 392.722656 C 223.863281 394.929688 222.085938 395.378906 211.089844 396.382812 C 205.359375 396.910156 200.261719 397.335938 199.757812 397.335938 C 198.863281 397.335938 198.839844 397.636719 198.839844 409.226562 L 198.839844 421.121094 L 200.328125 421.371094 C 201.148438 421.511719 206.550781 422.132812 212.34375 422.757812 C 223.832031 424 224.476562 424.207031 225.949219 427.15625 C 226.382812 428.015625 227.480469 431.402344 228.390625 434.679688 C 229.300781 437.953125 231.390625 444.246094 233.023438 448.652344 C 235.597656 455.578125 235.976562 456.984375 235.792969 458.964844 L 235.589844 461.253906 L 225.824219 470.714844 C 218.25 478.050781 216.160156 480.320312 216.53125 480.796875 C 221.238281 486.835938 228.765625 495.847656 229.105469 495.847656 C 229.480469 495.847656 233.734375 493.28125 247.46875 484.761719 C 249.832031 483.292969 252.445312 482.980469 254.289062 483.949219 C 254.890625 484.265625 256.949219 486.007812 258.851562 487.820312 C 260.757812 489.632812 264.328125 492.71875 266.785156 494.675781 C 271.625 498.535156 273.007812 500.292969 273.015625 502.613281 C 273.015625 503.433594 271.878906 508.414062 270.496094 513.675781 C 269.109375 518.941406 267.976562 523.597656 267.976562 524.015625 C 267.976562 524.53125 269.515625 525.496094 272.804688 527.039062 C 275.457031 528.28125 277.792969 529.296875 278 529.296875 C 278.203125 529.296875 280.714844 526.566406 283.585938 523.226562 C 291.304688 514.242188 293.089844 512.441406 294.839844 511.859375 C 296.246094 511.394531 297.679688 511.644531 307.257812 514.003906 C 318.804688 516.847656 320.296875 517.53125 321.488281 520.476562 C 321.863281 521.410156 325.667969 540.570312 325.667969 541.535156 C 325.667969 541.621094 328.910156 541.636719 332.867188 541.566406 L 340.070312 541.441406 L 342 531.199219 M 320.402344 495.148438 C 301.785156 492.160156 285.773438 483.933594 272.304688 470.445312 C 250.863281 448.964844 242.125 419.53125 248.582031 390.5 C 252.917969 370.980469 264.800781 352.59375 281.070312 340.199219 C 303.386719 323.207031 333.398438 318.207031 360.003906 327.046875 C 390.894531 337.3125 414.738281 365.789062 419.289062 397.835938 C 420.164062 403.96875 420.171875 415.988281 419.3125 421.703125 C 415.648438 446.019531 402.054688 467.339844 381.347656 481.253906 C 371.769531 487.6875 360.929688 492.222656 349.679688 494.507812 C 343.179688 495.824219 326.863281 496.183594 320.402344 495.148438 M 340.679688 479.789062 C 357.242188 478 371.636719 471.027344 383.589844 459 C 393.878906 448.648438 399.953125 437.238281 402.898438 422.746094 C 404.15625 416.535156 404.042969 401.53125 402.6875 395.382812 C 399.285156 379.96875 391.296875 366.234375 380.160156 356.644531 C 370.855469 348.632812 359.996094 343.144531 347.644531 340.214844 C 340.457031 338.511719 329.335938 338.226562 321.605469 339.546875 C 306.671875 342.105469 294.105469 348.648438 283.296875 359.496094 C 271.039062 371.804688 264.308594 386.320312 262.925781 403.441406 C 261.621094 419.609375 265.683594 435.078125 274.921875 449.128906 C 278.605469 454.730469 288.164062 464.359375 293.617188 467.957031 C 307.828125 477.332031 324.527344 481.535156 340.679688 479.789062 M 324.90625 455.792969 C 310.0625 452.976562 297.5 442.984375 290.804688 428.691406 C 287.730469 422.121094 286.636719 417.039062 286.621094 409.25 C 286.605469 401.871094 287.222656 398.269531 289.484375 392.414062 C 295.144531 377.734375 307.714844 366.886719 323.421875 363.117188 C 328.660156 361.855469 338.832031 361.980469 344.210938 363.367188 C 357.933594 366.90625 369.828125 376.679688 375.878906 389.386719 C 379.261719 396.492188 379.859375 399.4375 379.894531 409.25 C 379.925781 418.777344 379.515625 421.078125 376.511719 428.082031 C 370.917969 441.117188 358.777344 451.496094 344.898438 455.105469 C 339.988281 456.378906 329.84375 456.730469 324.90625 455.792969 M 340.066406 435.125 C 348.738281 432.863281 355.875 426.019531 358.917969 417.039062 C 360.117188 413.5 360.117188 404.996094 358.917969 401.460938 C 355.890625 392.527344 349.054688 385.925781 340.171875 383.359375 C 336.039062 382.164062 329.933594 382.335938 325.4375 383.773438 C 318.519531 385.984375 312.429688 391.203125 309.472656 397.464844 C 307.429688 401.789062 306.75 404.910156 306.792969 409.691406 C 306.910156 421.007812 314.101562 430.839844 324.980469 434.554688 C 329.335938 436.039062 335.632812 436.277344 340.066406 435.125 Z M 340.066406 435.125 " fill-opacity="1" fill-rule="nonzero"/></g></svg>